<svg width="118" height="118" viewBox="0 0 118 118" fill="none" xmlns="http://www.w3.org/2000/svg">
<path d="M31.267 84.1689C26.3935 27.8821 69.9585 11.9157 104.823 17.393C106.235 36.0483 96.2614 43.0305 77.2711 46.2572C80.9349 49.7641 87.418 54.1794 86.7169 59.6974C86.2231 63.62 83.3099 65.5497 77.4834 69.4001C64.7147 77.842 49.9214 83.1747 31.267 84.1689Z" fill="#FF6C7B" stroke="#FF6C7B" stroke-width="6" stroke-linecap="round" stroke-linejoin="round"/>
<path d="M22.9666 110.714C22.9666 81.339 41.9667 66.3442 55.0613 56.4833" stroke="#FF6C7B" stroke-width="6" stroke-linecap="round" stroke-linejoin="round"/>
<path d="M21.3004 77.7888C16.4269 21.502 59.9919 5.53566 94.8567 11.0129C96.2689 29.6683 86.2948 36.6504 67.3046 39.8772C70.9683 43.3841 77.4515 47.7993 76.7503 53.3173C76.2565 57.24 73.3433 59.1697 67.5169 63.02C54.7481 71.4619 39.9549 76.7946 21.3004 77.7888Z" fill="#04FFEE" stroke="#04FFEE" stroke-width="6" stroke-linecap="round" stroke-linejoin="round"/>
<path d="M13 104.334C13 74.9589 32.0001 59.9642 45.0948 50.1033" stroke="#04FFEE" stroke-width="6" stroke-linecap="round" stroke-linejoin="round"/>
<path d="M26.2838 81.346C21.4103 25.0592 64.9753 9.09285 99.8401 14.5701C101.252 33.2254 91.2782 40.2076 72.288 43.4343C75.9517 46.9413 82.4349 51.3565 81.7337 56.8745C81.2399 60.7972 78.3267 62.7269 72.5003 66.5772C59.7315 75.0191 44.9383 80.3518 26.2838 81.346Z" fill="white" stroke="#2A2B36" stroke-width="6" stroke-linecap="round" stroke-linejoin="round"/>
<path d="M17.9834 107.891C17.9834 78.5161 36.9835 63.5214 50.0782 53.6604" stroke="#2A2B36" stroke-width="6" stroke-linecap="round" stroke-linejoin="round"/>
</svg>
