<svg width="164" height="164" viewBox="0 0 164 164" fill="none" xmlns="http://www.w3.org/2000/svg">
<circle cx="82" cy="82" r="75" fill="#23c891"/>
<path d="M59.296 102.106C55.2151 54.9738 91.6949 41.6042 120.889 46.1906C122.072 61.8119 113.72 67.6586 97.8182 70.3605C100.886 73.2971 106.315 76.9943 105.728 81.6148C105.314 84.8995 102.875 86.5154 97.996 89.7395C87.3039 96.8085 74.9166 101.274 59.296 102.106Z" fill="white" stroke="white" stroke-width="6" stroke-linecap="round" stroke-linejoin="round"/>
<path d="M52.3457 124.334C52.3457 99.7367 68.2557 87.1807 79.2207 78.9235" stroke="white" stroke-width="6" stroke-linecap="round" stroke-linejoin="round"/>
<path d="M50.9503 96.7639C46.8694 49.6314 83.3492 36.2617 112.544 40.8482C113.726 56.4695 105.374 62.3161 89.4725 65.0181C92.5404 67.9546 97.9692 71.6518 97.3821 76.2724C96.9686 79.5571 94.5292 81.1729 89.6503 84.3971C78.9582 91.466 66.5709 95.9314 50.9503 96.7639Z" fill="#FFD69A" stroke="#FFD69A" stroke-width="6" stroke-linecap="round" stroke-linejoin="round"/>
<path d="M44 118.992C44 94.3943 59.91 81.8382 70.875 73.581" stroke="#FFD69A" stroke-width="6" stroke-linecap="round" stroke-linejoin="round"/>
<path d="M55.1232 99.7426C51.0423 52.6101 87.522 39.2404 116.717 43.8269C117.899 59.4482 109.547 65.2948 93.6454 67.9967C96.7133 70.9333 102.142 74.6305 101.555 79.251C101.141 82.5357 98.702 84.1516 93.8232 87.3758C83.1311 94.4447 70.7437 98.9101 55.1232 99.7426Z" fill="#23c891" stroke="black" stroke-width="4" stroke-linecap="round" stroke-linejoin="round"/>
<path d="M48.1729 121.97C48.1729 97.3729 64.0829 84.8169 75.0479 76.5597" stroke="black" stroke-width="6" stroke-linecap="round" stroke-linejoin="round"/>
</svg>
